<svg width="64" height="64" viewBox="0 0 64 64" fill="none" xmlns="http://www.w3.org/2000/svg">
<path d="M32 56C45.2548 56 56 45.2548 56 32C56 18.7452 45.2548 8 32 8C18.7452 8 8 18.7452 8 32C8 45.2548 18.7452 56 32 56Z" stroke="#165EF0" stroke-miterlimit="10"/>
<path d="M42.3945 44.001C41.3402 42.1775 39.8248 40.6634 38.0003 39.6107C36.1758 38.5581 34.1064 38.0039 32.0001 38.0039C29.8937 38.0039 27.8243 38.558 25.9998 39.6106C24.1753 40.6632 22.6598 42.1773 21.6055 44.0008" stroke="#165EF0" stroke-linecap="round" stroke-linejoin="round"/>
<path fill-rule="evenodd" clip-rule="evenodd" d="M20.1957 25C20.1633 25.1893 20.1465 25.3839 20.1465 25.5824C20.1465 27.4779 21.683 29.0144 23.5785 29.0144C25.4739 29.0144 27.0105 27.4779 27.0105 25.5824C27.0105 25.3839 26.9937 25.1893 26.9613 25H25.9403C25.9862 25.1866 26.0105 25.3817 26.0105 25.5824C26.0105 26.9256 24.9217 28.0144 23.5785 28.0144C22.2353 28.0144 21.1465 26.9256 21.1465 25.5824C21.1465 25.3817 21.1708 25.1866 21.2167 25H20.1957Z" fill="#165EF0"/>
<path fill-rule="evenodd" clip-rule="evenodd" d="M37.1938 25C37.1614 25.1894 37.1445 25.3841 37.1445 25.5827C37.1445 27.479 38.6818 29.0163 40.5781 29.0163C42.4745 29.0163 44.0118 27.479 44.0118 25.5827C44.0118 25.3841 43.9949 25.1894 43.9625 25H42.9416C42.9874 25.1867 43.0118 25.3818 43.0118 25.5827C43.0118 26.9267 41.9222 28.0163 40.5781 28.0163C39.2341 28.0163 38.1445 26.9267 38.1445 25.5827C38.1445 25.3818 38.1689 25.1867 38.2147 25H37.1938Z" fill="#165EF0"/>
</svg>
