<?xml version="1.0" standalone="yes"?>
<svg xmlns="http://www.w3.org/2000/svg" width="512" height="512">
<path style="fill:#060503; stroke:none;" d="M0 0L0 512L512 512L512 427L508 427L508 423C504.103 425.808 502.153 433.263 502 438C483.999 440.063 501.725 415.121 502 406L505 406L505 400L508 397L512 397L512 298L508 298L508 289L505 289L497 262L494 262L494 256L491 256L491 247L488 247L488 241L477 235L477 229L480 226L512 226L512 0L359 0L359 7L356 7L353 28L350 28L350 37L347 37C346.999 46.5117 343.875 54.8174 342.263 64C338.32 86.4651 336.062 113.87 339.133 136.91C341.237 152.698 345.359 170.507 350.54 185.715C353.833 195.379 360.339 206.831 361 217L364 217L364 223L367 223L367 229C372.773 232.111 382.335 249.598 384 256L392 268C398.123 271.116 407.924 282.357 409 289L421 298L404 271L398 262L395 262L376 217L373 217C372.8 210.82 369.068 205.856 367.553 199.961C362.951 182.045 357.152 161.228 356.044 142.999C354.846 123.298 358.244 103.965 362.456 85C364.276 76.8047 368.904 69.425 370 61L373 61C377.465 31.0325 410.181 26 434 26C440.342 26 455.868 24.0155 460.343 29.5224C465.106 35.3845 447.657 49.6305 443 52L443 58L432 67L426 76L426 82C417.099 84.9562 409.001 109.493 409 118L406 118C405.268 129.516 399.774 139.982 398.143 151.09C395.555 168.723 396.636 189.265 398.058 207C399.386 223.566 408.998 239.258 409 256L412 256C412.563 273.419 431.795 286.482 432 304L426 304L443 322C450.508 323.098 464.381 333.285 468 340L474 340L474 343L479 343C477.984 349.371 471.724 350.159 466.09 348.455C455.966 345.395 437.667 340.617 432 331L421 328L421 325L415 325L415 322C410.223 320.742 406.24 317.403 404 313C392.63 311.338 379.103 296.282 371.2 288.4C349.738 266.998 329.89 245.625 312.715 220.626C306.183 211.119 295.754 202.055 294 190C289.185 187.142 286.359 180.476 286 175L283 175L269.184 122L269.129 73L274 50L277 50C278.172 41.986 286.543 35.5495 292.739 31.0054C307.278 20.3436 329.193 3.37967 348 2L348 0L0 0z"/>
<path style="fill:#e6e1cd; stroke:none;" d="M342 2L342 5L349 5L349 2C352.582 2.56802 353.943 3.5083 355 7L359 7L359 0L342 2z"/>
<path style="fill:#d1b738; stroke:none;" d="M349 2L349 5L341 5L341 8L334 8L334 11L328 11L328 14L306 22C305.513 25.543 303.291 25.7738 300 26C295.275 35.6711 280.895 38.0936 280 50L277 50L274 56C274.477 60.1607 274.947 62.8023 271 65C272.101 69.0935 274.491 84.1956 269 85L269 109L272 109L271 129L275 130L274 142C277.795 144.343 277.048 147.895 277 152L280 152L280 160L283 160L283 169L286 169L291 186L294 192L297 191L297 195L300 195L300 201L303 201L302 206L306 205L305 211L308 210L317 225L320 225C320.564 241.985 349.791 250.836 350 268C359.395 267.546 368.208 281.442 373.9 287.79C376.082 290.223 378.955 291.877 380 295C385.752 295.132 391.49 301.665 393 307L398 306L399 310L404 310L403 313L407 312L420 325L424 324L424 328L429 327L430 331L435 330L436 334L441 333L446 340L452 339C453.515 343.561 456.864 342.754 461 342C463.006 346.969 469.573 344.727 467.149 340.725C463.774 335.154 456.024 334.517 453 328L428 310C427.63 307.017 425.916 307.137 423 307L412 293L400 278L389 269L390 264L372 245L369 238L370 234L367 228L364 228C363.204 222.655 359.457 214.146 355 211L353 194L350 194L350 187L347 187L347 177L344 177L345 167L341 167L339 127L336 127L336 90L339 90L339 64L342 64C341.95 58.0121 340.136 53.3967 345 49L344 39L347 40L347 28L350 28L353 8L356 8C354.657 3.85538 353.434 2.34518 349 2z"/>
<path style="fill:#956c0c; stroke:none;" d="M341 4L342 5L341 4z"/>
<path style="fill:#e6e1cd; stroke:none;" d="M227 23L230 19L235 20L241 17L247 14L247 11L252 11C253.78 7.34323 256.26 7.92932 260 8L260 13L257 13L254 25L257 19L260 19C260.257 15.4905 264.362 9.71399 261.968 6.6026C259.971 4.00748 255.465 5.19049 253.039 6.34027C246.095 9.63217 229.382 15.68 227 23M306 21L306 22L328 14L328 11L334 11L334 8L341 8L341 5C328.366 5.14905 317.109 15.9138 306 21z"/>
<path style="fill:#d1b738; stroke:none;" d="M252 11L247 11L247 14C243.806 14.0135 241.729 13.5971 241 17C237.667 16.6438 235.967 16.5962 235 20L230 19L230 23L225 22L222 26L222 27C229.499 26.4448 252.257 6.92795 256 17C251.522 19.8566 250.227 25.9787 251 31C246.19 33.8124 247.619 38.1359 248 43L249 43L249 36C252.966 35.5034 251.868 30.4118 252 27L255 28L257 13L260 13L260 8C256.267 7.79724 253.176 6.86087 252 11z"/>
<path style="fill:#e6e1cd; stroke:none;" d="M353 8L353 19L354 19L356 8L353 8z"/>
<path style="fill:#956c0c; stroke:none;" d="M246 10L247 11L246 10M256 10L256 11L259 11L256 10M220 26C216.736 31.9801 203.848 39.9747 197 41L196 45L192 44C189.979 47.7499 187.195 49.4261 183 50C180.734 54.4575 177.041 58.2303 172 59L172 62L166 61L151 80C143.598 81.1089 134.181 91.4889 131 98L127 97L123 101L117 112L113 112L114 116L110 115C108.17 122.044 98.3942 134.5 91 136L92 140C88.5972 140.729 89.0135 142.806 89 146L86 146L78 160L93.7137 140.209L120.845 110.666L139 91C145.733 93.4754 142.878 99.249 144 105L148 104C150.255 112.361 154.917 118.02 158.995 125.259C161.675 130.017 160.179 133.552 166 136L164 141L165 141L166 138L168 138C170.317 147.589 173.468 152.252 178.481 160.058C181.461 164.698 181.878 170.001 188 171L185 173L185 178C191.75 179.629 194.118 189.31 197 195C193.386 195.087 189.219 195.217 187.603 199.109C184.929 205.552 187.452 215.299 187.91 222C188.725 233.895 188 246.077 188 258C188 291.495 190.365 325.64 188.981 358.999C188.755 364.438 184.444 367.743 184.054 373.039C181.846 403.003 184 433.946 184 464L185 464L185 459L186 459L186 464L187 464L187 394C187 387.795 184.315 373.686 190 370L190 369L187 369C193.257 360.302 190 343.418 190 333C190 301.945 189 271.011 189 240C189 229.553 184.522 205.062 193 198C199.614 212.779 196 233.867 196 250L196 360L203 361L204 357C208.978 357.837 209.847 355.66 210 351L209 351L200 358L199.961 310L200.015 234L203 203C207.403 207.01 204 224.428 204 231C204 255.91 202.459 284.76 208 309L209 309L209.961 270L207.129 257.961L206 213L209 213L209 219L210 219L213 213C221.377 244.082 216 282.537 216 315C216 322.509 212.196 345.863 220 349L220 345L225 346L229 342L229 341L217 347L218 235L219 235L223 257L224 257L224 253L225 253L228 297L229 297L229 225C237.159 234.926 235 245.608 235 258L235 310C235 318.761 233.538 328.796 237 337L240 333L246 334L245 331L252 327L252 444C252 462.308 255.243 484.179 251 502L254 501C250.884 487.913 253 472.424 253 459C253 429.298 254 399.725 254 370C254 356.843 255.134 343.118 253.941 330.019C253.468 324.819 248.683 324.216 247 329L237 333C234.907 316.349 234.096 291.399 238 275L242 275L243 275C243.687 280.067 244.414 283.555 250 284L267 322L264 319L263 319L259 329C262.009 332.971 260.83 338.218 261.039 343C261.478 353.026 262 362.921 262 373L262 454C262 469.814 263.641 486.141 259 501L263 501L263 324L269 330L269 478L270 478L270.83 371L273 336L273 341L278 346L282 354L283 354L282 340C291.998 348.239 289 361.064 289 373L289 455L289 480C289 482.911 288.089 487.947 290.028 490.397C291.88 492.736 297.26 492.347 300 493L290.603 487.837L290 456L292 375L294 375L299 484L300 484L299 352L300 352C301.483 354.616 304.504 356.212 305.542 359.134C308.632 367.837 305 381.792 305 391L305 456C305 465.939 299.94 488.947 313 489L313 486L319 486L319 365L326 370L325 404L325 473L328 473L331 440L334 440L341 465L341 466L349 468L328 480L327 480L325 478L326 484L330 480L338 481L337 477L344 478L344 474L358 471L358 468L365 469L365 465L382 460L381 456L397 450L397 447L402 447C405.068 441.306 414.359 434.751 421 435C433.866 416.737 457.697 406.729 472.581 390.026C475.137 387.157 487.213 376.327 484.914 372.519C479.73 363.927 461.669 366.402 455 359C446.588 359.655 433.732 353.053 428 347L416 341L398.92 331.758L365.54 309.371L352 296C343.539 294.709 334.227 283.516 328.127 277.612C310.272 260.333 293.024 240.982 281.16 219.296C278.152 213.8 271.67 208.294 271 202L269 195L266 196L266 189L263 183L260 178L257 172C252.586 169.142 250.88 160.935 252 156L248 156L249 143C244.001 140.241 245.61 135.944 246 131C240.376 127.711 242.985 120.616 243 115C236.075 110.764 236.075 79.2364 243 75C242.995 67.787 240.083 60.3313 246 55C245.25 50.3466 244.377 46.551 249 44C247.659 38.8044 246.679 34.853 251 31C250.717 25.8104 252.225 20.6381 256 17C254.497 10.1154 249.643 13.6927 244.989 15.8264C237.454 19.2809 228.344 27.2875 220 26z"/>
<path style="fill:#d1b738; stroke:none;" d="M355 13L356 14L355 13z"/>
<path style="fill:#956c0c; stroke:none;" d="M315 16L316 17L315 16M310 19L311 20L310 19z"/>
<path style="fill:#e6e1cd; stroke:none;" d="M352 20L350 28L353 28L352 20M210 32L201 35L201 37L204 38L210 35L213 32L213 28L218 29L218 25L224 26L225 22C218.999 22.936 211.876 25.7794 210 32M286 38C291.807 36.3436 298.21 31.9603 300 26L307 23C300.149 21.9119 287.964 31.4875 286 38z"/>
<path style="fill:#d1b738; stroke:none;" d="M256 24L257 25L256 24M218 25L218 29L213 28L213 32L214 32C216.783 29.7246 220.65 28.8864 218 25M220 25L221 26L220 25z"/>
<path style="fill:#e6e1cd; stroke:none;" d="M398 32C388.068 30.5095 373.675 52.0143 373 61L370 61C366.292 77.4107 354.913 95.7894 360 113C352.94 115.343 356 131.726 356 138C356.001 158.015 362.405 181.388 367.553 200.91C369.01 206.435 372.579 211.256 373 217L376 217L386.667 243.083L393 253L395 262L398 262C398.587 266.092 399.936 269.558 404 271C404.539 278.337 413.84 292.65 421 295L424 304L423 304C420.457 298.527 414.88 290.93 409 289C408.741 285.723 408.436 284.177 405 284C403.203 277.894 398.38 270.03 392 268C391.311 263.276 388.696 257.676 384 256C383.139 250.107 372.672 230.878 367 229L370 234L369 238L372 245L390 264L389 269L400 278C401.168 283.515 407.034 290.435 412 293L423 307L427 307L426 304L432 304C431.975 296.804 427.577 282.49 420 280L412 256C407.155 257.417 407.409 262.426 412 264C410.671 269.684 416.895 282.094 422 285L420 289L393 247L391 248L390 248C392.201 238.276 383.561 228.462 379.862 219.83C377.983 215.445 378.051 210.655 373 209C374.107 205.115 374.153 202.379 370 201C372.62 189.992 366.081 172.895 363.455 161.83C362.366 157.24 364.304 152.041 360 149L362 144L360 128L365 84L368 84L370 67C378.896 64.1541 385.831 45.461 392.884 38.6837C403.194 28.777 418.766 29 432 29C436.062 29 455.57 26.648 454.248 34.6659C453.658 38.2498 448.247 42.2117 445.884 44.8033C438.989 52.3654 421.291 69.2712 423 80C415.612 84.0476 407.674 99.7957 409 108C404.439 109.515 405.246 112.864 406 117C399.105 118.477 395.8 141.983 398 148L400 148L406 118L409 118C409.007 108.91 417.57 86.5586 426 82L426 76L435 67L443 58L443 52C449.369 49.9735 458.326 40.5343 460.887 34.4244C463.474 28.2485 457.547 26.0571 453 29C451.045 24.5956 445.262 26 441 26C430.606 26 416.861 23.6674 407 27C403.43 28.2067 398.874 27.8999 398 32M252 27L252 31L254 27L252 27M347 28L347 37L350 37L350 28L347 28z"/>
<path style="fill:#d1b738; stroke:none;" d="M453 28L454 29L453 28M455 28L456 29L455 28M458 28L459 29L458 28M370 67L368 84L365 84L360 128L362 144L360 149C363.669 152.915 362.371 156.932 363.259 161.83C365.412 173.708 372.178 189.217 370 201C373.608 202.995 373.808 205.089 373 209C377.43 211.411 377.771 215.416 379.491 219.83C382.975 228.776 391.536 238.023 390 248L393 247C398.19 262.101 410.465 276.449 420 289L422 285C417.28 281.012 411.382 270.2 412 264C408.229 261.629 408.72 259.153 409 255C405.107 252.834 405.311 250.104 406 246C401.885 243.377 400.917 233.787 399.721 228.999C396.251 215.112 395.725 203.534 394.616 189.424C394.108 182.972 389.326 177.17 394 171C393.587 164.586 391.81 152.616 398 149C396.501 140.928 398.449 121.871 406 117C405.523 112.839 405.053 110.198 409 108C408.356 99.1028 416.066 85.4829 423 80C423.153 68.7363 437.946 54.5253 445.151 46.4244C447.858 43.3817 454.638 38.5454 454.67 34.1744C454.726 26.2935 436.671 29 432 29C414.179 29 398.893 30.2741 386.445 44.5795C380.697 51.1855 377.895 62.8039 370 67M209 31L210 32L209 31z"/>
<path style="fill:#956c0c; stroke:none;" d="M251 31L252 32L251 31z"/>
<path style="fill:#d1b738; stroke:none;" d="M397 31L398 32L397 31M210 35L213 32L210 35M204 38L210 36C206.963 34.0312 205.152 34.5573 204 38z"/>
<path style="fill:#e6e1cd; stroke:none;" d="M249 36L249 45L252 36L249 36M199 37L191 43L196 44L199 37z"/>
<path style="fill:#d1b738; stroke:none;" d="M200 37L197 40L197 41L203 38L200 37z"/>
<path style="fill:#e6e1cd; stroke:none;" d="M283 38L277 50L280 50L286 38L283 38M344 39L346 49L346 39L344 39z"/>
<path style="fill:#d1b738; stroke:none;" d="M196 41L196 44L197 44L196 41M280 41L281 42L280 41z"/>
<path style="fill:#e6e1cd; stroke:none;" d="M188 43L187 47L190 43L188 43z"/>
<path style="fill:#d1b738; stroke:none;" d="M190 43L190 47L194 44L190 43M194.667 44.3333L195.333 44.6667L194.667 44.3333M245 52L246 52L246 48L249 48L249 44C244.954 45.3429 245.047 48.0654 245 52z"/>
<path style="fill:#956c0c; stroke:none;" d="M185 46L186 47L185 46z"/>
<path style="fill:#d1b738; stroke:none;" d="M182 53L183 53L183 50L190 48C185.658 45.8611 183.165 48.9102 182 53z"/>
<path style="fill:#e6e1cd; stroke:none;" d="M172 57L172 58C178.268 57.1436 181.912 52.155 185 47L172 57M246 48L246 55L249 55L249 48L246 48M344 49C340.195 53.0345 341.596 56.8818 342 62L343 62L344 49M274 50L274 56L277 56L277 50L274 50z"/>
<path style="fill:#d1b738; stroke:none;" d="M179 53L179 56L180 56L179 53M245 53L246 54L245 53z"/>
<path style="fill:#956c0c; stroke:none;" d="M173.667 55.3333L174.333 55.6667L173.667 55.3333z"/>
<path style="fill:#d1b738; stroke:none;" d="M175 55L176 56L175 55M245 55L242 66L243 66L243 61L246 61L245 55M176 56L171 58L170 62L172 59L178 56L176 56z"/>
<path style="fill:#e6e1cd; stroke:none;" d="M167 59L167 61L168 62L170 62L171 58L167 59M273 58L271 64L272 65L274 65L273 58z"/>
<path style="fill:#d1b738; stroke:none;" d="M165 61L162 68L163 68L165 61M167 61L168 62L167 61z"/>
<path style="fill:#e6e1cd; stroke:none;" d="M243 61L243 73L244 73L246 61L243 61M152 75L156 74L156 70L159 71L165 62C159.308 63.5597 154.151 69.6512 152 75z"/>
<path style="fill:#956c0c; stroke:none;" d="M271 64L272 65L271 64z"/>
<path style="fill:#e6e1cd; stroke:none;" d="M339 64L339 83C343.694 78.4033 342 70.166 342 64L339 64z"/>
<path style="fill:#956c0c; stroke:none;" d="M434 65L435 66L434 65z"/>
<path style="fill:#e6e1cd; stroke:none;" d="M271 66C268.415 72.1009 268.12 79.6406 270 86L271 86L271 66z"/>
<path style="fill:#d1b738; stroke:none;" d="M156 68L157 69L156 68M159 68L159 71L160 71L159 68M156 70L156 74L157 74L156 70z"/>
<path style="fill:#956c0c; stroke:none;" d="M153 71L154 72L153 71M151 73L152 74L151 73z"/>
<path style="fill:#d1b738; stroke:none;" d="M154 73L151 74L144 83L151 80L154 73M240 75C238.157 84.7739 238.981 95.0782 239 105C239.008 109.094 238.483 113.679 243 115L240 86L243 87L243 86L241 85L243 75L240 75z"/>
<path style="fill:#e6e1cd; stroke:none;" d="M148 76L149 77L148 76z"/>
<path style="fill:#956c0c; stroke:none;" d="M365 76L366 77L365 76z"/>
<path style="fill:#e6e1cd; stroke:none;" d="M145 77L145 79L148 79L148 77L145 77M143 79L139 86L137 85L135 91L145 79L143 79z"/>
<path style="fill:#d1b738; stroke:none;" d="M139.333 83.6667L139.667 84.3333L139.333 83.6667M142 83L136 91C131.561 91.1676 129.185 93.8145 128 98C132.527 96.6402 143.234 88.1397 142 83M138 85L139 86L138 85z"/>
<path style="fill:#e6e1cd; stroke:none;" d="M241.667 85.3333L242.333 85.6667L241.667 85.3333M240 86C240 90.279 239.264 94.3058 243 97C243 92.721 243.736 88.6942 240 86z"/>
<path style="fill:#956c0c; stroke:none;" d="M134 88L135 89L134 88z"/>
<path style="fill:#e6e1cd; stroke:none;" d="M336 90L336 127L339 127L339 90L336 90M131 91L132 92L131 91z"/>
<path style="fill:#6c541b; stroke:none;" d="M139 91L124.424 106.127L93.7137 139.375L75 162L76 167L72 168L73 173L61 186C60.4181 190.163 58.802 192.23 55 194L52 204L53 209C48.3079 211.717 47.0614 215.799 47 221L44 221L44 227L41 227L42 232L38 233C38.1205 239.066 37.8205 248.623 32 252L30 273L27 272L27 286L24 286L24 308L21 307L21 342L24 342L24 363L27 363L27 375L30 375L30 384L33 384L32 393L36 393L35 399L38 399L38 408L41 408L41 414L47 417C47.1515 421.996 48.5722 424.574 53 427L52 431L55 435L72 450L72 456L78 456L82 463L86 462L89 468L93 468L92 472L96 472L97 448L97 402L97 250L96 250L96 266L95 266C94.9721 255.905 91.6535 243.903 94.51 234C97.38 224.051 116.053 211.448 126 210C129.719 203.125 146.128 191.666 154 192L158 185L160 185C164.876 195.998 162.549 207.35 162.039 219C161.347 234.807 164.671 252.581 161 268L160 268L160 264L159 264L159 497L173 498L173 302L171 182C180.782 184.664 180.365 193.528 180.289 202C180.122 220.684 179 239.304 179 258L179 501L187 499C187 491.669 190.093 473.928 184 469L184 468L186 459L185 459L185 464L184 464C184 434.257 181.915 403.672 184.054 374.015C184.439 368.684 188.755 365.405 188.981 359.996C190.389 326.294 188 291.834 188 258C188 246.034 188.484 233.954 187.961 222C187.667 215.297 185.593 207.68 187.318 201.015C188.541 196.292 192.716 195.235 197 195C195.057 189.541 191.632 177.896 185 178L188 171C182.459 169.356 181.759 164.616 179.04 160.058C174.344 152.184 170.865 147.324 168 138L166 138L165 141L164 141L166 136L158.995 124.455L148 104L144 105C143.4 99.381 145.991 92.5255 139 91z"/>
<path style="fill:#956c0c; stroke:none;" d="M361 93L362 94L361 93z"/>
<path style="fill:#e6e1cd; stroke:none;" d="M128 94L129 95L128 94z"/>
<path style="fill:#956c0c; stroke:none;" d="M142 94L143 95L142 94M125 97L126 98L125 97z"/>
<path style="fill:#d1b738; stroke:none;" d="M126 97L120 106L123 101L126 97z"/>
<path style="fill:#e6e1cd; stroke:none;" d="M123 98L123 100L125 100L125 98L123 98M122 100L123 101L122 100M121.333 101.667L121.667 102.333L121.333 101.667z"/>
<path style="fill:#d1b738; stroke:none;" d="M117 106L114 112L120 106L117 106z"/>
<path style="fill:#956c0c; stroke:none;" d="M118 106L119 107L118 106z"/>
<path style="fill:#e6e1cd; stroke:none;" d="M116 108L117 109L116 108M114 109L115 110L114 109z"/>
<path style="fill:#956c0c; stroke:none;" d="M115 109L116 110L115 109z"/>
<path style="fill:#e6e1cd; stroke:none;" d="M269 109C269 114.609 267.082 124.256 272 128L272 109L269 109M111 112L112 113L111 112z"/>
<path style="fill:#d1b738; stroke:none;" d="M112 112L111 116L114 116L112 112M359 112L360 113L359 112z"/>
<path style="fill:#e6e1cd; stroke:none;" d="M108 115L106 118L108 115z"/>
<path style="fill:#d1b738; stroke:none;" d="M109 115L105 122C108.486 120.871 110.065 118.644 109 115z"/>
<path style="fill:#e6e1cd; stroke:none;" d="M243 117L243 127L246 127L243 117z"/>
<path style="fill:#956c0c; stroke:none;" d="M103 121L104 122L103 121z"/>
<path style="fill:#e6e1cd; stroke:none;" d="M104 121L97 131L106 124L104 121z"/>
<path style="fill:#d1b738; stroke:none;" d="M242 123C242.093 126.816 242.116 129.634 246 131L246 127L243 127L242 123M103 124L103 125L106 125L103 124M100 127L100 128L103 128L100 127z"/>
<path style="fill:#e6e1cd; stroke:none;" d="M271 129L273 140L275 130L271 129z"/>
<path style="fill:#d1b738; stroke:none;" d="M98.6667 130.333L99.3333 130.667L98.6667 130.333z"/>
<path style="fill:#956c0c; stroke:none;" d="M271 130L272 131L271 130z"/>
<path style="fill:#e6e1cd; stroke:none;" d="M95 131L95 133L97 133L97 131L95 131M93 133L92 136L93 133z"/>
<path style="fill:#d1b738; stroke:none;" d="M94 136L95 136L97 134C94.8603 132.882 94.4732 133.749 94 136z"/>
<path style="fill:#e6e1cd; stroke:none;" d="M246 133L246 139L249 139L248 133L246 133z"/>
<path style="fill:#d1b738; stroke:none;" d="M245 135C245.047 138.935 244.954 141.657 249 143L249 139L246 139L245 135z"/>
<path style="fill:#e6e1cd; stroke:none;" d="M90 136L89 139L92 139L90 136z"/>
<path style="fill:#d1b738; stroke:none;" d="M92.6667 136.333L93.3333 136.667L92.6667 136.333M89 139L89 140L92 140L89 139z"/>
<path style="fill:#e6e1cd; stroke:none;" d="M339 140C338.89 145.347 336.515 150.973 342 154C342 149.266 343.262 143.011 339 140M86 142L86 145L89 145L89 142L86 142M274 142L277 151L277 142L274 142M249 143L250 153L251 153C252.09 149.205 252.353 145.552 249 143z"/>
<path style="fill:#d1b738; stroke:none;" d="M86 145L86 146L89 146L86 145z"/>
<path style="fill:#e6e1cd; stroke:none;" d="M85 146L84 148L86 148L85 146z"/>
<path style="fill:#d1b738; stroke:none;" d="M83 148L83 153L84 153L86 148L83 148M248 148L248 156L252 156L252 152L248 148z"/>
<path style="fill:#e6e1cd; stroke:none;" d="M395 149L394 171C388.641 174.087 393.419 184.474 394.194 189C395.236 195.083 393.388 201.797 394.083 208C394.91 215.37 398.462 222.766 399.889 230C400.722 234.224 401.585 245.059 406 246C404.906 250.056 404.519 253.515 409 255L398.143 207L398 149L395 149M80 151L75 160L83 151L80 151M277 152L280 160L280 152L277 152z"/>
<path style="fill:#d1b738; stroke:none;" d="M80 157L81 157L83 155C80.8603 153.882 80.4732 154.749 80 157z"/>
<path style="fill:#e6e1cd; stroke:none;" d="M342 155L341 167L345 167L344 155L342 155z"/>
<path style="fill:#d1b738; stroke:none;" d="M78.6667 157.333L79.3333 157.667L78.6667 157.333M251 157L254 167L255 167L255 161L253 157L251 157z"/>
<path style="fill:#e6e1cd; stroke:none;" d="M253 157C252.146 159.697 252.149 160.386 255 161L253 157z"/>
<path style="fill:#d1b738; stroke:none;" d="M77 158L75 160L75 161C77.2508 160.527 78.1178 160.14 77 158z"/>
<path style="fill:#e6e1cd; stroke:none;" d="M280 160L283 169L283 160L280 160M72 163L75 161L72 163z"/>
<path style="fill:#956c0c; stroke:none;" d="M75 161L75 162L78 162L75 161z"/>
<path style="fill:#d1b738; stroke:none;" d="M72 163L72 166L75 166L75 163L72 163z"/>
<path style="fill:#e6e1cd; stroke:none;" d="M254 163L254 169C258.096 168.122 257.35 164.487 254 163z"/>
<path style="fill:#956c0c; stroke:none;" d="M75 164L72 168L75 164z"/>
<path style="fill:#e6e1cd; stroke:none;" d="M70 166L69 170L72 166L70 166z"/>
<path style="fill:#956c0c; stroke:none;" d="M69 167L70 168L69 167z"/>
<path style="fill:#e6e1cd; stroke:none;" d="M345 168L344 177L347 177L345 168z"/>
<path style="fill:#d1b738; stroke:none;" d="M254 169L254 172L257 172L257 169L254 169z"/>
<path style="fill:#e6e1cd; stroke:none;" d="M283 169L283 175L286 175L289 182L291 190L295 189L291 186L286 169L283 169z"/>
<path style="fill:#d1b738; stroke:none;" d="M69 173L72 170L69 173z"/>
<path style="fill:#956c0c; stroke:none;" d="M72 170L63 179L64 183C67.0046 180.879 72.8736 173.65 72 170z"/>
<path style="fill:#e6e1cd; stroke:none;" d="M66 172L63 177L63 178L69 172L66 172z"/>
<path style="fill:#d1b738; stroke:none;" d="M67 172L68 173L67 172z"/>
<path style="fill:#e6e1cd; stroke:none;" d="M257 172L257 175L260 175L260 172L257 172z"/>
<path style="fill:#956c0c; stroke:none;" d="M183 173L184 174L183 173z"/>
<path style="fill:#d1b738; stroke:none;" d="M256 173L260 178L256 173M66 175L66 176L69 176L66 175M64 176L65 177L64 176z"/>
<path style="fill:#e6e1cd; stroke:none;" d="M260 176C260.064 178.993 259.946 180.346 263 181L260 176z"/>
<path style="fill:#d1b738; stroke:none;" d="M362 177L363 178L362 177M63 178L63 179L66 179L63 178z"/>
<path style="fill:#e6e1cd; stroke:none;" d="M347 178L347 187L350 187L349 178L347 178z"/>
<path style="fill:#d1b738; stroke:none;" d="M259 179L263 183L259 179z"/>
<path style="fill:#e6e1cd; stroke:none;" d="M61 181L58 188L59 188L63 181L61 181z"/>
<path style="fill:#d1b738; stroke:none;" d="M63 181L61 184L61 185L63 181z"/>
<path style="fill:#956c0c; stroke:none;" d="M171 182L172 189L173 189L173 186L179 193C182.824 187.79 175.955 182.758 171 182z"/>
<path style="fill:#e6e1cd; stroke:none;" d="M263 182C263.064 184.993 262.946 186.346 266 187L263 182z"/>
<path style="fill:#d1b738; stroke:none;" d="M288 182L289 183L288 182z"/>
<path style="fill:#956c0c; stroke:none;" d="M63 184L60 185L60 186L63 184M265 184L266 185L265 184M158 185L154 192C146.657 190.78 128.3 202.939 126 210C116.333 210.709 97.2699 223.447 94.51 233C91.569 243.18 94.9141 255.628 95 266L96 266L99 226L105 226L116 214L122 214L122 211L127 211L127 208L132 208L132 205L136 205L136 202L141 202C143 197.929 145.496 196.334 150 196L150 192L159 190L160 268L161 268C163.593 259.228 161.999 248.39 161.861 239.285C161.698 228.473 162.983 217.754 163 207C163.012 199.375 164.089 191.73 160 185L158 185z"/>
<path style="fill:#d1b738; stroke:none;" d="M262 185L266 189L262 185M60 186L58 191L60 186M173 186L173 187L176 187L173 186z"/>
<path style="fill:#e6e1cd; stroke:none;" d="M173 187L173 204L175 204L174 190L176 190L176 282L175 282L174 233L173 233L173 501L176 496L177 496L179 498L179 479L178 479L177 494L176 494L176 417L177 417L178 462L179 462L179 190L176 187L173 187M350 187L350 194L353 194L352 187L350 187z"/>
<path style="fill:#d1b738; stroke:none;" d="M176 188L179 190L179 189L176 188z"/>
<path style="fill:#e6e1cd; stroke:none;" d="M266 189L269 194L266 189M55 190L55 193L58 193L58 190L55 190z"/>
<path style="fill:#956c0c; stroke:none;" d="M60 190L61 191L60 190z"/>
<path style="fill:#d1b738; stroke:none;" d="M155 193L159 190L155 193z"/>
<path style="fill:#060503; stroke:none;" d="M174 190L175 282L176 282L176 190L174 190z"/>
<path style="fill:#d1b738; stroke:none;" d="M265 190C265.255 193.298 265.485 195.066 269 195L269 194L265 190z"/>
<path style="fill:#956c0c; stroke:none;" d="M58.3333 191.667L58.6667 192.333L58.3333 191.667z"/>
<path style="fill:#e6e1cd; stroke:none;" d="M158.333 191.667L158.667 192.333L158.333 191.667z"/>
<path style="fill:#956c0c; stroke:none;" d="M268 191L269 192L268 191z"/>
<path style="fill:#e6e1cd; stroke:none;" d="M295 191C294.186 196.088 297.947 203.339 303 205L303 201L300 201L300 195L297 195L297 191L295 191z"/>
<path style="fill:#d1b738; stroke:none;" d="M150 192L151 193L150 192M268 192L269 193L268 192M55 193L55 194L58 194L55 193z"/>
<path style="fill:#e6e1cd; stroke:none;" d="M150 193L150 196L156 193L150 193z"/>
<path style="fill:#956c0c; stroke:none;" d="M179 194L179 228L180 228C180 218.035 183.08 203.092 179 194z"/>
<path style="fill:#e6e1cd; stroke:none;" d="M52 196L52 200L55 196L52 196z"/>
<path style="fill:#d1b738; stroke:none;" d="M144 196L143 199L144 196z"/>
<path style="fill:#e6e1cd; stroke:none;" d="M145 199L150 196C147.007 196.064 145.654 195.946 145 199z"/>
<path style="fill:#956c0c; stroke:none;" d="M172 196L173 197L172 196z"/>
<path style="fill:#d1b738; stroke:none;" d="M268 196L271 202L268 196z"/>
<path style="fill:#e6e1cd; stroke:none;" d="M269 196L271 199L269 196z"/>
<path style="fill:#d1b738; stroke:none;" d="M270 196L271 197L270 196z"/>
<path style="fill:#e6e1cd; stroke:none;" d="M353 196L355 211L364 228L367 228L367 223L364 223L364 217L361 217L355 196L353 196z"/>
<path style="fill:#d1b738; stroke:none;" d="M52 197L53 198L52 197z"/>
<path style="fill:#6c541b; stroke:none;" d="M195 197L196 198L195 197M197 198L203 203C205.771 194.687 199.156 198.539 197 198z"/>
<path style="fill:#d1b738; stroke:none;" d="M146 198L147 199L146 198M187 369L193 366L193 205L196 205L193 198C188.267 200.61 189 205.098 189 210L189 241C189 270.694 190 300.27 190 330C190 342.054 192.926 358.228 187 369z"/>
<path style="fill:#956c0c; stroke:none;" d="M55 199L52 204L55 199z"/>
<path style="fill:#d1b738; stroke:none;" d="M141 199L141 202L142 202L141 199z"/>
<path style="fill:#e6e1cd; stroke:none;" d="M142 199L142 202L145 202L145 199L142 199M271 199L271 204L274 204L271 199z"/>
<path style="fill:#d1b738; stroke:none;" d="M355 199L356 200L355 199M52 200L52 202L55 202L55 200L52 200z"/>
<path style="fill:#956c0c; stroke:none;" d="M172 200L172 205L173 205L172 200z"/>
<path style="fill:#e6e1cd; stroke:none;" d="M51 202L49 205L52 206L51 202z"/>
<path style="fill:#d1b738; stroke:none;" d="M136 205L139 202L136 205z"/>
<path style="fill:#e6e1cd; stroke:none;" d="M138 205L142 202L138 205z"/>
<path style="fill:#6c541b; stroke:none;" d="M203 203L204 206C197.448 210.725 200 235.013 200 243C200 264.933 200.92 287.09 199.961 309C199.278 324.587 196.345 342.649 200 358C212.398 354.283 208.658 346.135 209.104 336C209.632 324.028 210 312.063 210 300L209 300L209 309L208 309C204.223 283.311 204 256.058 204 230C204 223.958 207.511 205.744 203 203z"/>
<path style="fill:#d1b738; stroke:none;" d="M270 204L285 225L283 217L280 217L280 211L274 208C273.865 204.808 273.192 204.135 270 204z"/>
<path style="fill:#956c0c; stroke:none;" d="M49 205L50 206L49 205z"/>
<path style="fill:#d1b738; stroke:none;" d="M132 205L132 208L133 208L132 205z"/>
<path style="fill:#e6e1cd; stroke:none;" d="M133 205L133 208L136 208L136 205L133 205M275 205L274 206L274 207L274 208L277 205L275 205M302 206L303 211L306 205L302 206z"/>
<path style="fill:#d1b738; stroke:none;" d="M49 209L52 206L49 209z"/>
<path style="fill:#956c0c; stroke:none;" d="M52 206L46 215C49.1244 213.162 52.9505 209.903 52 206M172.333 206.667L172.667 207.333L172.333 206.667z"/>
<path style="fill:#e6e1cd; stroke:none;" d="M173 207L173 218L174 218L173 207M47 208L46 212L49 208L47 208z"/>
<path style="fill:#d1b738; stroke:none;" d="M127 208L127 211L128 211L127 208z"/>
<path style="fill:#e6e1cd; stroke:none;" d="M128 208L128 211L131 211L131 208L128 208M277 208L280 211L277 208z"/>
<path style="fill:#956c0c; stroke:none;" d="M358 208L359 209L358 208z"/>
<path style="fill:#e6e1cd; stroke:none;" d="M306 210L305 211L305 213L339.324 255.676L351 267C346.85 251.125 321.239 241.081 320 225L317 225L308 210L306 210z"/>
<path style="fill:#d1b738; stroke:none;" d="M47.6667 211.333L48.3333 211.667L47.6667 211.333M122 211L125 214L122 211z"/>
<path style="fill:#e6e1cd; stroke:none;" d="M124 211L125 214L127 214L128 211L124 211z"/>
<path style="fill:#d1b738; stroke:none;" d="M206 213L209 266L210 266L209 213L206 213M211 213L212 220L215 219L215 317C215 324.249 211.546 344.816 218 349L218 348C212.389 340.593 216 321.192 216 312L216 248C216 236.197 217.633 223.916 213 213L211 213z"/>
<path style="fill:#e6e1cd; stroke:none;" d="M44 214L44 217L46 217L46 214L44 214z"/>
<path style="fill:#d1b738; stroke:none;" d="M116 217L119 217C118.338 213.85 116.662 213.85 116 217z"/>
<path style="fill:#e6e1cd; stroke:none;" d="M119 217L122 214L119 217M280 214L280 217L283 217L283 214L280 214z"/>
<path style="fill:#d1b738; stroke:none;" d="M46 215L44 217L44 218C46.2508 217.527 47.1177 217.14 46 215M282 215L283 216L282 215z"/>
<path style="fill:#e6e1cd; stroke:none;" d="M117 216L118 217L117 216z"/>
<path style="fill:#d1b738; stroke:none;" d="M113 217L112 220L113 217z"/>
<path style="fill:#e6e1cd; stroke:none;" d="M114 220L117 217L114 220z"/>
<path style="fill:#060503; stroke:none;" d="M210 217L210 285L211 318L212 318L212 217L210 217z"/>
<path style="fill:#e6e1cd; stroke:none;" d="M283 217C283.125 221.221 283.683 224.566 288 226L283 217z"/>
<path style="fill:#956c0c; stroke:none;" d="M44 218L44 221L47 221L47 218L44 218z"/>
<path style="fill:#e6e1cd; stroke:none;" d="M213 219L212 252L212 318L210 317L210 347L211 347L211 341L212 341L213 352L221 349C210.947 347.397 215 325.921 215 318L215 219L213 219M42 220L41 224L44 224L44 220L42 220M108 220L111 222L108 220z"/>
<path style="fill:#d1b738; stroke:none;" d="M110 220L111 221L110 220M107 222L107 223L111 223L107 222M42 223L41 226L44 226L42 223z"/>
<path style="fill:#e6e1cd; stroke:none;" d="M105 223L105 226L108 226L108 223L105 223z"/>
<path style="fill:#d1b738; stroke:none;" d="M229 225L235 235L236 235L229 225z"/>
<path style="fill:#956c0c; stroke:none;" d="M41 226L41 227L44 227L41 226z"/>
<path style="fill:#d1b738; stroke:none;" d="M99 226L99 229L100 229L99 226z"/>
<path style="fill:#e6e1cd; stroke:none;" d="M100 226L100 229L103 229L103 226L100 226z"/>
<path style="fill:#d1b738; stroke:none;" d="M285 226C285.687 230.723 295.481 245.617 300 240L297 241L297 237L294 238L294 232L288 226L285 226z"/>
<path style="fill:#956c0c; stroke:none;" d="M378 226L379 227L378 226z"/>
<path style="fill:#e6e1cd; stroke:none;" d="M480 226L477 235L480 235L480 229L512 229L512 226L480 226z"/>
<path style="fill:#d1b738; stroke:none;" d="M489 226L489 227L496 227L489 226z"/>
<path style="fill:#e6e1cd; stroke:none;" d="M39 227L41 230L41 227L39 227M229 228L229 333L231 331L232 331L232 337C235.291 338.461 237.651 340.526 240 337L235 337L235 232L229 228M288 228L289 229L288 228z"/>
<path style="fill:#d1b738; stroke:none;" d="M38 229L41 232L40 229L38 229z"/>
<path style="fill:#e6e1cd; stroke:none;" d="M97 232L100 229L97 232z"/>
<path style="fill:#6c541b; stroke:none;" d="M221 229L220 231L222 231L221 229z"/>
<path style="fill:#956c0c; stroke:none;" d="M477 229L478 230L477 229z"/>
<path style="fill:#d1b738; stroke:none;" d="M480 229L480 230L484 230L480 229z"/>
<path style="fill:#956c0c; stroke:none;" d="M484 229L484 230L512 230L484 229M179 230L179 233L180 233L179 230z"/>
<path style="fill:#e6e1cd; stroke:none;" d="M291 230L291 232L293 232L293 230L291 230z"/>
<path style="fill:#956c0c; stroke:none;" d="M480 230L480 235L481 235L483 230L480 230z"/>
<path style="fill:#6c541b; stroke:none;" d="M481 235C488.168 234.775 491.507 241.473 491 248L495 249L494 257C497.595 257.47 496.987 260.897 497 264L500 264L500 270L503 270L502 275C505.138 277.897 505.394 279.83 505 284L508 289L512 289L512 230C504.351 230 483.663 226.226 481 235z"/>
<path style="fill:#956c0c; stroke:none;" d="M41 231L42 232L41 231M38 232L38 233L41 233L38 232z"/>
<path style="fill:#6c541b; stroke:none;" d="M220 233L221 237L222 237L222 233L220 233z"/>
<path style="fill:#e6e1cd; stroke:none;" d="M294 233L294 238L297 237L294 233z"/>
<path style="fill:#956c0c; stroke:none;" d="M179.333 234.667L179.667 235.333L179.333 234.667M483 234L483 235L489 238L483 234z"/>
<path style="fill:#e6e1cd; stroke:none;" d="M36 235L35 241L38 235L36 235z"/>
<path style="fill:#6c541b; stroke:none;" d="M218 235L217 347L229 341L225 253L224 253L224 257L223 257C222.999 249.213 222.942 241.401 218 235z"/>
<path style="fill:#d1b738; stroke:none;" d="M295 235L296 236L295 235z"/>
<path style="fill:#956c0c; stroke:none;" d="M296 235L297 236L296 235z"/>
<path style="fill:#e6e1cd; stroke:none;" d="M482 235L487 239L485 240L485 241L488 238L485 235L482 235z"/>
<path style="fill:#d1b738; stroke:none;" d="M485 235L488 238L488 237L485 235z"/>
<path style="fill:#6c541b; stroke:none;" d="M159 237L160 238L159 237M222 238L223 239L222 238z"/>
<path style="fill:#e6e1cd; stroke:none;" d="M297 238L297 241L300 240L300 239L297 238z"/>
<path style="fill:#d1b738; stroke:none;" d="M488.333 238.667L488.667 239.333L488.333 238.667M35 239L36 240L35 239z"/>
<path style="fill:#956c0c; stroke:none;" d="M38 239L35 245C37.6535 243.378 39.0125 242.116 38 239z"/>
<path style="fill:#d1b738; stroke:none;" d="M485.667 239.333L486.333 239.667L485.667 239.333M35 242L38 240L35 242z"/>
<path style="fill:#956c0c; stroke:none;" d="M488 240L491 246L492 246L490 240L488 240z"/>
<path style="fill:#e6e1cd; stroke:none;" d="M299 241L300 245L301 245L302 241L299 241z"/>
<path style="fill:#d1b738; stroke:none;" d="M488 243L488 244L491 244L488 243M299 244L309.576 258.87L338.755 287.71L352 296C353.407 302.827 359.47 305.593 364.715 309.371C375.976 317.484 387.208 324.83 398.92 332.265C404.23 335.637 409.377 341.236 416 341C418.29 345.17 423.371 346.944 428 347C432.176 353.462 447.491 360.383 455 359C460.057 367.244 481.204 363.979 484.669 373.25C485.877 376.482 473.803 388.28 471.272 390.714C462.669 398.984 453.087 407.403 443.551 414.628C435.924 420.406 425.152 426.097 421 435C414.488 434.45 404.078 440.689 402 447L397 447L396 451C398.858 450.791 400 450.826 400 448L405 448L404 445C408.127 444.335 410.736 441.986 412 438L417 439L418 435C421.137 435.494 422 435.036 423 432L427 433L426 429L431 430L435 423L439 424L443 421C444.77 417.198 446.837 415.582 451 415L454 412L454 408L457 409C459.207 403.971 462.45 400.728 468 400L468 396L474 390L478 391L482 385L482 381L488 382L491 379L494 371L488 367L479 367L479 364L470 364L470 361L460 361L460 358L451 358L451 355L444 355L444 352L439 352L440 349L431 349C430.63 346.017 428.916 346.137 426 346L426 343L420 343L420 340C415.078 339.844 411.397 338.478 409 334L403 334L395 325L389 325L389 322L384 322L381 316L375 316C373.384 310.913 369.31 307.394 364 307L364 304L358 304L357 298L353 298L354 295L350 295L345 287L344 287L342 289L325 268L324 268L322 271L316 265L317 262L314 257L302 248L302 244L299 244z"/>
<path style="fill:#e6e1cd; stroke:none;" d="M488 244L488 247L491 247L491 244L488 244M34 246L32 250C34.6489 249.432 35.3548 248.412 34 246M302 247L303 248L302 247M304 247L305 248L304 247z"/>
<path style="fill:#956c0c; stroke:none;" d="M35 248L32 250C34.0221 252.142 35.5984 250.586 35 248M491 248L491 249L494 251L495 251L491 248z"/>
<path style="fill:#e6e1cd; stroke:none;" d="M305 249L306 250L305 249z"/>
<path style="fill:#d1b738; stroke:none;" d="M491 251L494 250L491 251M33.6667 250.333L34.3333 250.667L33.6667 250.333z"/>
<path style="fill:#e6e1cd; stroke:none;" d="M492 250L491 256L494 256L494 250L492 250M308 251L308 253L310 253L308 251M31 253L30 259L32 259L31 253z"/>
<path style="fill:#956c0c; stroke:none;" d="M392 253L393 254L392 253M32 256L33 257L32 256z"/>
<path style="fill:#060503; stroke:none;" d="M37 256C33.5615 260.909 33.1042 269.167 31.2014 275.001C24.5031 295.538 25.0204 317.528 25.9606 339C26.211 344.717 24.5195 351.297 25.3889 356.83C27.3519 369.324 37.2121 384.319 36 397L57.4915 433.54L92 467L92 431L91.8117 361.015L85 337L80 338L66.9259 304L37 256z"/>
<path style="fill:#e6e1cd; stroke:none;" d="M312 256L312 258L314 256L312 256z"/>
<path style="fill:#956c0c; stroke:none;" d="M494 258L497 258L496 256L494 258z"/>
<path style="fill:#d1b738; stroke:none;" d="M32 257L30 259L30 260C32.2508 259.527 33.1178 259.14 32 257z"/>
<path style="fill:#e6e1cd; stroke:none;" d="M313 258L314 259L313 258z"/>
<path style="fill:#d1b738; stroke:none;" d="M494 258L494 259L497 259L494 258z"/>
<path style="fill:#060503; stroke:none;" d="M40 259L41 260L40 259z"/>
<path style="fill:#e6e1cd; stroke:none;" d="M314 259L314 262L316 262L316 259L314 259M494 259L494 261L497 261L497 259L494 259z"/>
<path style="fill:#956c0c; stroke:none;" d="M30 263L33 260L30 263z"/>
<path style="fill:#d1b738; stroke:none;" d="M494 261L494 262L497 262L494 261z"/>
<path style="fill:#e6e1cd; stroke:none;" d="M317 262L316 263L316 264L316 265L319 262L317 262z"/>
<path style="fill:#956c0c; stroke:none;" d="M497 264L497 265L500 265L497 264z"/>
<path style="fill:#e6e1cd; stroke:none;" d="M27 265L27 269L30 269L30 265L27 265z"/>
<path style="fill:#6c541b; stroke:none;" d="M239 265L240 266L239 265z"/>
<path style="fill:#e6e1cd; stroke:none;" d="M319 265L322 268L321 265L319 265z"/>
<path style="fill:#d1b738; stroke:none;" d="M321 265L322 266L321 265M497 268L500 265L497 268z"/>
<path style="fill:#e6e1cd; stroke:none;" d="M350 268L351 271L355 270C357.62 276.988 373.119 295.255 381 294C374.978 287.187 359.896 266.104 350 268M498 267L500 272L498 267z"/>
<path style="fill:#956c0c; stroke:none;" d="M499.333 267.667L499.667 268.333L499.333 267.667z"/>
<path style="fill:#e6e1cd; stroke:none;" d="M322 268L322 271C324.006 269.873 324.006 269.127 322 268z"/>
<path style="fill:#d1b738; stroke:none;" d="M416 268L417 269L416 268M27 269L27 271L30 271L30 269L27 269M499 269L499 273C502.552 272.253 501.75 270.481 499 269z"/>
<path style="fill:#6c541b; stroke:none;" d="M238 270L237 272L239 272L238 270z"/>
<path style="fill:#d1b738; stroke:none;" d="M354 270L355 271L354 270z"/>
<path style="fill:#956c0c; stroke:none;" d="M502 270L502 274L503 274L502 270M27 271L30 273L27 271z"/>
<path style="fill:#e6e1cd; stroke:none;" d="M327 271L330 274L327 271z"/>
<path style="fill:#6c541b; stroke:none;" d="M237 273L238 274L237 273z"/>
<path style="fill:#e6e1cd; stroke:none;" d="M499 273L501 277L502 277L502 273L499 273M25 274L24 283L27 283L27 274L25 274M330 274L333 277L330 274z"/>
<path style="fill:#6c541b; stroke:none;" d="M238 275L237 304L237 333L247 329C249.653 324.518 253.487 325.898 253.941 331.005C254.758 340.19 254 349.777 254 359C254 393.725 253 428.302 253 463C253 471.425 248.484 500.181 259 501L262 498L262 372L261.015 341L259 329L263 319L264 319L267 322L261.161 305.994L254.433 300.941L250 284C244.815 283.154 243.995 279.737 243 275L242 275L241 277L238 275z"/>
<path style="fill:#956c0c; stroke:none;" d="M502 275L505 281L506 281L502 275z"/>
<path style="fill:#e6e1cd; stroke:none;" d="M333 277L336 280L335 277L333 277z"/>
<path style="fill:#d1b738; stroke:none;" d="M420.333 278.667L420.667 279.333L420.333 278.667M502 278L502 279L505 279L502 278z"/>
<path style="fill:#956c0c; stroke:none;" d="M241 279L241 283L242 283L241 279z"/>
<path style="fill:#e6e1cd; stroke:none;" d="M502 279L502 282L505 282L505 279L502 279M336 280L339 283L338 280L336 280z"/>
<path style="fill:#956c0c; stroke:none;" d="M503 282L504 283L503 282z"/>
<path style="fill:#d1b738; stroke:none;" d="M504 282L505 283L504 282M24 283L24 284L27 284L24 283z"/>
<path style="fill:#e6e1cd; stroke:none;" d="M339 283L342 286L341 283L339 283z"/>
<path style="fill:#d1b738; stroke:none;" d="M405 283L406 284L405 283z"/>
<path style="fill:#956c0c; stroke:none;" d="M24 284L24 286L27 286L27 284L24 284M505 284L505 285L508 285L505 284z"/>
<path style="fill:#d1b738; stroke:none;" d="M505 285L505 286L508 286L505 285z"/>
<path style="fill:#e6e1cd; stroke:none;" d="M342 289L345 286L342 289M505 286L505 289L508 289L508 286L505 286M23 288C20.836 292.055 19.6474 297.178 24 300L23 288z"/>
<path style="fill:#956c0c; stroke:none;" d="M508 289L508 291L512 291L512 289L508 289z"/>
<path style="fill:#e6e1cd; stroke:none;" d="M347 290L347 292L349 292L347 290z"/>
<path style="fill:#d1b738; stroke:none;" d="M508 291L508 292L512 293L508 291z"/>
<path style="fill:#e6e1cd; stroke:none;" d="M350 292L353 295L352 292L350 292z"/>
<path style="fill:#d1b738; stroke:none;" d="M414 292L415 293L414 292z"/>
<path style="fill:#e6e1cd; stroke:none;" d="M508 292L508 298L512 298L512 293L508 292M380 295L393 307C392.114 301.428 385.94 294.069 380 295M354 295L356 299L354 295z"/>
<path style="fill:#956c0c; stroke:none;" d="M24 298L24 302L25 302L24 298M228 298L228 305L229 305L228 298z"/>
<path style="fill:#e6e1cd; stroke:none;" d="M357 298L356 301L361 304L357 298z"/>
<path style="fill:#956c0c; stroke:none;" d="M420.333 298.667L420.667 299.333L420.333 298.667z"/>
<path style="fill:#d1b738; stroke:none;" d="M21 299L21 304L24 304L21 299M420 300L421 301L420 300z"/>
<path style="fill:#060503; stroke:none;" d="M421 300L421 301L423 304L424 304L421 300z"/>
<path style="fill:#d1b738; stroke:none;" d="M422 301L423 302L422 301z"/>
<path style="fill:#956c0c; stroke:none;" d="M21 304L24 308L24 304L21 304z"/>
<path style="fill:#e6e1cd; stroke:none;" d="M364 304L364 307L367 307L367 304L364 304z"/>
<path style="fill:#956c0c; stroke:none;" d="M228 306L228 309L229 309L228 306z"/>
<path style="fill:#e6e1cd; stroke:none;" d="M393 308C396.491 310.521 400.916 314.707 404 310L399 310L398 306L393 308M369 307L372 310L369 307M428 307L428 310C437.304 314.973 440.948 327.095 453 328C454.729 334.065 462.146 338.416 468 340C465.704 333.062 450.125 322.524 443 322C441.674 317.833 436.331 311.701 432 311L428 307z"/>
<path style="fill:#956c0c; stroke:none;" d="M254 311L258 311L257 308L254 311M395 309L396 310L395 309z"/>
<path style="fill:#e6e1cd; stroke:none;" d="M372 310L372 313L375 313L375 310L372 310z"/>
<path style="fill:#d1b738; stroke:none;" d="M432 310L433 311L432 310z"/>
<path style="fill:#956c0c; stroke:none;" d="M228.333 312.667L228.667 313.333L228.333 312.667z"/>
<path style="fill:#e6e1cd; stroke:none;" d="M404 312L404 316L415 322L415 325L420 325L407 312L404 312M375 313L378 316L377 313L375 313z"/>
<path style="fill:#d1b738; stroke:none;" d="M377 313L378 314L377 313z"/>
<path style="fill:#956c0c; stroke:none;" d="M209 316L210 317L209 316z"/>
<path style="fill:#e6e1cd; stroke:none;" d="M381 316L384 319L383 316L381 316z"/>
<path style="fill:#956c0c; stroke:none;" d="M209 318L209 324L210 324L209 318z"/>
<path style="fill:#e6e1cd; stroke:none;" d="M384 319L384 322L387 322L387 319L384 319z"/>
<path style="fill:#060503; stroke:none;" d="M231 321L231 329L232 329L231 321z"/>
<path style="fill:#6c541b; stroke:none;" d="M268 322L268 325L273 328L272 323L270 324L268 322z"/>
<path style="fill:#e6e1cd; stroke:none;" d="M389 322L392 325L391 322L389 322z"/>
<path style="fill:#d1b738; stroke:none;" d="M391 322L392 323L391 322z"/>
<path style="fill:#060503; stroke:none;" d="M211 323L211 333L212 333L211 323z"/>
<path style="fill:#d1b738; stroke:none;" d="M263 324L262 327L266 328L263 324z"/>
<path style="fill:#e6e1cd; stroke:none;" d="M421 324L424 328L424 324L421 324M394 326L394 327L398 328L398 325L394 326z"/>
<path style="fill:#d1b738; stroke:none;" d="M245 333L246 333L249 331L249 501L252 501L252 327L245 333z"/>
<path style="fill:#e6e1cd; stroke:none;" d="M263 327L263 501L264 501L269 498L269 501L276 500L269 498L269 331L263 327z"/>
<path style="fill:#d1b738; stroke:none;" d="M421 327L422 328L421 327z"/>
<path style="fill:#e6e1cd; stroke:none;" d="M425 328L430 331L429 327L425 328M399 328L403 334L408 334L399 328z"/>
<path style="fill:#d1b738; stroke:none;" d="M266 330L266 331L269 331L266 330z"/>
<path style="fill:#6c541b; stroke:none;" d="M271 330L272 331L271 330z"/>
<path style="fill:#e6e1cd; stroke:none;" d="M433 330L432 334L447 339L441 333L436 334L435 330L433 330M246 331L246 334L249 334L249 331L246 331z"/>
<path style="fill:#d1b738; stroke:none;" d="M265 331L265 335L266 335L265 331z"/>
<path style="fill:#956c0c; stroke:none;" d="M209 332L209 342L210 342L209 332z"/>
<path style="fill:#6c541b; stroke:none;" d="M271.333 332.667L271.667 333.333L271.333 332.667z"/>
<path style="fill:#d1b738; stroke:none;" d="M235 333L237 337L235 333M240 333L238 337L243 337L243 333L240 333z"/>
<path style="fill:#6c541b; stroke:none;" d="M273 333L275 335L273 333z"/>
<path style="fill:#e6e1cd; stroke:none;" d="M242 336L246 335L242 336M409 334L409 337L412 337L412 334L409 334z"/>
<path style="fill:#6c541b; stroke:none;" d="M271 335L272 336L271 335z"/>
<path style="fill:#e6e1cd; stroke:none;" d="M241 336L242 337L241 336z"/>
<path style="fill:#6c541b; stroke:none;" d="M272 336C267.117 362.304 270 392.241 270 419C270 444.882 266.961 472.408 270 498L275 498L283 494L283 383C283 374.045 286.991 350.954 278 346C277.418 342.64 276.36 341.582 273 341L272 336z"/>
<path style="fill:#e6e1cd; stroke:none;" d="M229 337L229 342C231.369 340.172 230.927 339.115 229 337z"/>
<path style="fill:#6c541b; stroke:none;" d="M276 337L275 339L276 337z"/>
<path style="fill:#e6e1cd; stroke:none;" d="M412 337L418 340L412 337M446 341L453 343L452 339L446 341z"/>
<path style="fill:#d1b738; stroke:none;" d="M282 340L288 354L289 354C288.995 347.222 288.132 343.587 282 340z"/>
<path style="fill:#e6e1cd; stroke:none;" d="M420 340L420 343L426 343L420 340M468 340L463 346C466.725 351.747 478.424 350.396 479 343L474 343L474 340L468 340z"/>
<path style="fill:#956c0c; stroke:none;" d="M21 342L21 347L24 342L21 342z"/>
<path style="fill:#d1b738; stroke:none;" d="M226 342L226 343L229 343L226 342z"/>
<path style="fill:#956c0c; stroke:none;" d="M272 342L273 343L272 342z"/>
<path style="fill:#e6e1cd; stroke:none;" d="M454 343L462 346L461 342L454 343M226 343L221 346L222 349L229 346L229 343L226 343z"/>
<path style="fill:#956c0c; stroke:none;" d="M275 343L276 344L275 343z"/>
<path style="fill:#e6e1cd; stroke:none;" d="M283 343L283 346L286 346L286 343L283 343M426 343L430 346L426 343z"/>
<path style="fill:#d1b738; stroke:none;" d="M428 343L429 344L428 343M228 344L229 345L228 344M220 345L222 349L223 346L220 345M225 345L226 346L225 345M227 345L228 346L227 345M23 346L21 350C23.6489 349.432 24.3548 348.412 23 346z"/>
<path style="fill:#956c0c; stroke:none;" d="M209 346L210 347L209 346M272 346L273 347L272 346M274 346L275 347L274 346z"/>
<path style="fill:#6c541b; stroke:none;" d="M282 346L283 347L282 346z"/>
<path style="fill:#e6e1cd; stroke:none;" d="M286 346L286 495L291 496L291 495C283.927 486.36 288 464.765 288 454C288 418.005 288.274 381.97 288 346L286 346M431 346L431 349L437 349L437 346L431 346M283 348L283 353L284 353L283 348M439 352L443 349L439 352M21 350L24 360L24 350L21 350z"/>
<path style="fill:#d1b738; stroke:none;" d="M213 350L214 351L213 350z"/>
<path style="fill:#e6e1cd; stroke:none;" d="M210.333 351.667L210.667 352.333L210.333 351.667z"/>
<path style="fill:#956c0c; stroke:none;" d="M215 351L216 352L215 351z"/>
<path style="fill:#d1b738; stroke:none;" d="M299 352C299.333 356.307 300.516 358.168 305 358L305 370L306 370C306 361.698 306.252 357.012 299 352z"/>
<path style="fill:#e6e1cd; stroke:none;" d="M444 352C444.654 355.054 446.007 354.936 449 355L444 352z"/>
<path style="fill:#d1b738; stroke:none;" d="M447 352L448 353L447 352M288 355L288 491L289 491L289 396C289 384.318 292.507 365.742 288 355z"/>
<path style="fill:#e6e1cd; stroke:none;" d="M451 355L451 358L457 358L451 355z"/>
<path style="fill:#d1b738; stroke:none;" d="M204 357L203 361L204 361L206 358L204 357z"/>
<path style="fill:#e6e1cd; stroke:none;" d="M204 361L207 358L204 361M303 358C300.104 375.117 303 395.503 303 413C303 438.499 299.469 467.287 305 492L313 492L305 489L305 358L303 358M460 358L460 361L468 361L460 358z"/>
<path style="fill:#d1b738; stroke:none;" d="M196 360L196 361L199 361L196 360M205 360L206 361L205 360z"/>
<path style="fill:#e6e1cd; stroke:none;" d="M300 360L300 365L301 365L300 360M196 361C197.998 363.969 199.615 363.368 202 361L196 361M470 361L470 364L477 364L470 361z"/>
<path style="fill:#d1b738; stroke:none;" d="M24 363L25 366L26 366L27 363L24 363z"/>
<path style="fill:#956c0c; stroke:none;" d="M192 364L193 365L192 364z"/>
<path style="fill:#e6e1cd; stroke:none;" d="M479 364L479 367L485 367L485 364L479 364M24 365L27 373L27 365L24 365z"/>
<path style="fill:#d1b738; stroke:none;" d="M319 365L322 373L326 370L319 365z"/>
<path style="fill:#e6e1cd; stroke:none;" d="M190 369L193 366L190 369M319 367L319 458C319 463.496 316.193 484.756 322 486C320.173 457.615 322 428.464 322 400C322 390.873 325.232 374.225 319 367M488 367L494 371L494 367L488 367M300 371L300 377L301 377L300 371z"/>
<path style="fill:#d1b738; stroke:none;" d="M305 371L306 372L305 371M305 373L305 379L306 379L305 373z"/>
<path style="fill:#e6e1cd; stroke:none;" d="M323 373L324 401L325 401L325 373L323 373z"/>
<path style="fill:#956c0c; stroke:none;" d="M27 375L27 376L30 376L27 375z"/>
<path style="fill:#6c541b; stroke:none;" d="M292 375C288.407 403.428 290 433.328 290 462C290 467.298 287.099 486.641 291.603 489.934C293.556 491.361 297.645 490.623 300 491L296.09 447L294 375L292 375z"/>
<path style="fill:#e6e1cd; stroke:none;" d="M490 378L494 375L490 378z"/>
<path style="fill:#d1b738; stroke:none;" d="M27 376L27 378L30 378L30 376L27 376z"/>
<path style="fill:#e6e1cd; stroke:none;" d="M27 378L30 384L30 378L27 378M489 378L490 379L489 378M482 381L482 385L485 384L485 382L484 381L482 381z"/>
<path style="fill:#060503; stroke:none;" d="M176 382L176 406L177 406L176 382z"/>
<path style="fill:#956c0c; stroke:none;" d="M30 384L30 385L32 389L33 389L33 384L30 384z"/>
<path style="fill:#d1b738; stroke:none;" d="M484 384L485 385L484 384M30 385L30 387L32 387L32 385L30 385z"/>
<path style="fill:#6c541b; stroke:none;" d="M299 385L300 386L299 385z"/>
<path style="fill:#e6e1cd; stroke:none;" d="M478 391L479 391L482 385C478.496 385.99 477.355 387.384 478 391M30 387L30 391L32 391L32 387L30 387M300.333 387.667L300.667 388.333L300.333 387.667M474 390L468 396L468 400L477 394L477 390L474 390z"/>
<path style="fill:#6c541b; stroke:none;" d="M299 391L300 392L299 391z"/>
<path style="fill:#e6e1cd; stroke:none;" d="M32 393L33 399L35 399L32 393z"/>
<path style="fill:#d1b738; stroke:none;" d="M33.6667 393.333L34.3333 393.667L33.6667 393.333z"/>
<path style="fill:#956c0c; stroke:none;" d="M35.3333 393.667L35.6667 394.333L35.3333 393.667z"/>
<path style="fill:#e6e1cd; stroke:none;" d="M300.333 393.667L300.667 394.333L300.333 393.667z"/>
<path style="fill:#d1b738; stroke:none;" d="M475 393L476 394L475 393M32 394L33 395L32 394z"/>
<path style="fill:#956c0c; stroke:none;" d="M32 395L33 396L32 395z"/>
<path style="fill:#6c541b; stroke:none;" d="M299 397L300 398L299 397z"/>
<path style="fill:#956c0c; stroke:none;" d="M508 397L509 404L505 404C505.369 407.887 505.442 409.837 502 412L503 418L497 425L500 431L499 431L498 427L497 427L494 434L502 432L501 426L505 426L505 425L501 420L506 424L504 420L508 419C507.284 412.763 516.527 399.83 508 397z"/>
<path style="fill:#6c541b; stroke:none;" d="M511 397L512 398L511 397z"/>
<path style="fill:#d1b738; stroke:none;" d="M470 398L471 399L470 398z"/>
<path style="fill:#6c541b; stroke:none;" d="M508 398L509 399L508 398z"/>
<path style="fill:#956c0c; stroke:none;" d="M35 399L38 402L35 399z"/>
<path style="fill:#e6e1cd; stroke:none;" d="M300.333 399.667L300.667 400.333L300.333 399.667z"/>
<path style="fill:#6c541b; stroke:none;" d="M309 399C303.898 420.254 306 445.173 306 467C306 470.586 303.863 487.091 308.978 487.383C319.5 487.985 318 475.626 318 469C318 448.632 317 428.361 317 408L316 408L316 413L315 413L315 407L310 409L309 399z"/>
<path style="fill:#e6e1cd; stroke:none;" d="M457 409L464 402L468 400C462.291 400.384 458.524 403.445 457 409z"/>
<path style="fill:#d1b738; stroke:none;" d="M505 400L506 401L505 400z"/>
<path style="fill:#e6e1cd; stroke:none;" d="M506 400L505 401L505 402L505 403L508 400L506 400z"/>
<path style="fill:#d1b738; stroke:none;" d="M35 401L36 402L35 401M508 401L505 403L505 404C507.348 403.706 508.951 403.507 508 401z"/>
<path style="fill:#e6e1cd; stroke:none;" d="M35 402L38 406L38 402L35 402z"/>
<path style="fill:#6c541b; stroke:none;" d="M299 402L300 403L299 402z"/>
<path style="fill:#d1b738; stroke:none;" d="M464 402L465 403L464 402M510 405L511 406L510 405z"/>
<path style="fill:#e6e1cd; stroke:none;" d="M511 405L511 411L512 411L511 405z"/>
<path style="fill:#6c541b; stroke:none;" d="M299 406L300 407L299 406z"/>
<path style="fill:#e6e1cd; stroke:none;" d="M502 406L502 409L505 409L505 406L502 406M324 407L324 410L325 410L324 407z"/>
<path style="fill:#d1b738; stroke:none;" d="M505 407L502 412C504.722 410.914 506.003 409.947 505 407z"/>
<path style="fill:#6c541b; stroke:none;" d="M507 407L507 409L509 409L507 407z"/>
<path style="fill:#d1b738; stroke:none;" d="M38 408L39 410L40 410L41 408L38 408z"/>
<path style="fill:#e6e1cd; stroke:none;" d="M300 408L300 418L301 418L300 408M454 408L455 412L456 412L456 408L454 408z"/>
<path style="fill:#d1b738; stroke:none;" d="M510 408L507 417L508 417L511 414L510 408z"/>
<path style="fill:#e6e1cd; stroke:none;" d="M38 409L38 412L40 413L41 413L41 409L38 409z"/>
<path style="fill:#d1b738; stroke:none;" d="M39 411L40 412L39 411z"/>
<path style="fill:#956c0c; stroke:none;" d="M454 411L455 412L454 411z"/>
<path style="fill:#060503; stroke:none;" d="M511 411L510 418L511 411z"/>
<path style="fill:#e6e1cd; stroke:none;" d="M451 412L451 414L454 414L454 412L451 412M500 412L499 414L499 415C501.458 414.483 502.523 413.417 500 412M324 413L324 419L325 419L324 413z"/>
<path style="fill:#d1b738; stroke:none;" d="M500 413L501 414L500 413M41 414L41 415L44 415L41 414z"/>
<path style="fill:#6c541b; stroke:none;" d="M504 414L505 415L504 414z"/>
<path style="fill:#e6e1cd; stroke:none;" d="M508 414L508 418L510 414L508 414z"/>
<path style="fill:#956c0c; stroke:none;" d="M510 414L511 415L510 414z"/>
<path style="fill:#e6e1cd; stroke:none;" d="M41 415L44 418L41 415M443 421L449 415L443 421z"/>
<path style="fill:#956c0c; stroke:none;" d="M499 415L500 416L499 415z"/>
<path style="fill:#d1b738; stroke:none;" d="M500 415L497 424L503 415L500 415z"/>
<path style="fill:#956c0c; stroke:none;" d="M315.333 416.667L315.667 417.333L315.333 416.667z"/>
<path style="fill:#d1b738; stroke:none;" d="M448 416L449 417L448 416z"/>
<path style="fill:#e6e1cd; stroke:none;" d="M499 416L500 417L499 416z"/>
<path style="fill:#956c0c; stroke:none;" d="M44 417L44 418L47 418L44 417z"/>
<path style="fill:#060503; stroke:none;" d="M176 417L176 494L177 494L179 471L177 442L176 417z"/>
<path style="fill:#d1b738; stroke:none;" d="M44 420L47 418L44 420z"/>
<path style="fill:#956c0c; stroke:none;" d="M497 418L498 419L497 418z"/>
<path style="fill:#e6e1cd; stroke:none;" d="M498 418L497 421L498 418z"/>
<path style="fill:#d1b738; stroke:none;" d="M504 422L505 422L508 420L512 423L512 418L504 422z"/>
<path style="fill:#956c0c; stroke:none;" d="M44 420L46 423L47 423L47 419L44 420z"/>
<path style="fill:#6c541b; stroke:none;" d="M299 420L300 421L299 420M501 420L505 425L501 420z"/>
<path style="fill:#e6e1cd; stroke:none;" d="M505 420L506 424L507 424L508 420L505 420M438 423L443 422L438 423z"/>
<path style="fill:#d1b738; stroke:none;" d="M47.6667 423.333L48.3333 423.667L47.6667 423.333z"/>
<path style="fill:#e6e1cd; stroke:none;" d="M435 423L434 427L437 427L437 423L435 423M508 423L508 427L512 427L512 423L508 423M47 424L47 426L49 426L49 424L47 424z"/>
<path style="fill:#956c0c; stroke:none;" d="M49 425L50 426L49 425z"/>
<path style="fill:#e6e1cd; stroke:none;" d="M496 425L494 430C497.012 429.354 497.498 427.613 496 425z"/>
<path style="fill:#d1b738; stroke:none;" d="M49 426L49 427L52 427L49 426M435 426L436 427L435 426z"/>
<path style="fill:#6c541b; stroke:none;" d="M497 426L499 431L500 431C500.522 427.908 500.081 426.86 497 426z"/>
<path style="fill:#d1b738; stroke:none;" d="M501.333 426.667L501.667 427.333L501.333 426.667z"/>
<path style="fill:#e6e1cd; stroke:none;" d="M502 426L502 432C504.895 430.073 504.82 428.013 502 426z"/>
<path style="fill:#d1b738; stroke:none;" d="M504.333 426.667L504.667 427.333L504.333 426.667z"/>
<path style="fill:#e6e1cd; stroke:none;" d="M49 427L52 430L49 427z"/>
<path style="fill:#956c0c; stroke:none;" d="M52 427L53 428L52 427z"/>
<path style="fill:#e6e1cd; stroke:none;" d="M431 430L434 427L431 430M426 429L426 432L429 432L429 429L426 429z"/>
<path style="fill:#d1b738; stroke:none;" d="M494 430L494 431L497 431L494 430z"/>
<path style="fill:#956c0c; stroke:none;" d="M52 431L52 432L55 432L52 431z"/>
<path style="fill:#d1b738; stroke:none;" d="M52 432L53 433L52 432z"/>
<path style="fill:#e6e1cd; stroke:none;" d="M53 432L52 435L55 438L56 438L55 432L53 432M423 432L418 435L417 439C421.46 438.136 424.622 436.477 426 432L423 432z"/>
<path style="fill:#956c0c; stroke:none;" d="M427 432L428 433L427 432z"/>
<path style="fill:#d1b738; stroke:none;" d="M494 434L494 438L498 438L502 436L502 432L494 434z"/>
<path style="fill:#e6e1cd; stroke:none;" d="M493 433L494 438L493 433z"/>
<path style="fill:#d1b738; stroke:none;" d="M55 435L58 441L61 439L61 438L57 438L58 435L55 435z"/>
<path style="fill:#e6e1cd; stroke:none;" d="M499 435L498 438L494 438L494 439L502 438L501 435L499 435M57.3333 436.667L57.6667 437.333L57.3333 436.667z"/>
<path style="fill:#956c0c; stroke:none;" d="M56 438L57 439L56 438z"/>
<path style="fill:#e6e1cd; stroke:none;" d="M412 438L409 444L415 441L415 439L414 438L412 438M58 442L61 439L58 442z"/>
<path style="fill:#6c541b; stroke:none;" d="M331 440C330.071 447.624 331.583 468.887 325 473L327 480L328 480L349 468L341 466L341 465L334 440L331 440z"/>
<path style="fill:#956c0c; stroke:none;" d="M59 441L60 442L59 441z"/>
<path style="fill:#d1b738; stroke:none;" d="M60 441L66 447L63 441L60 441z"/>
<path style="fill:#956c0c; stroke:none;" d="M63 441L63 444L64 444L63 441z"/>
<path style="fill:#e6e1cd; stroke:none;" d="M61.6667 444.333L62.3333 444.667L61.6667 444.333z"/>
<path style="fill:#956c0c; stroke:none;" d="M64.6667 444.333L65.3333 444.667L64.6667 444.333z"/>
<path style="fill:#e6e1cd; stroke:none;" d="M408 444L409 445L408 444z"/>
<path style="fill:#956c0c; stroke:none;" d="M63 445L64 446L63 445M66 445L64 447L64 448L66 450L72 453L66 445z"/>
<path style="fill:#e6e1cd; stroke:none;" d="M404 445L405 448L407 445L404 445z"/>
<path style="fill:#6c541b; stroke:none;" d="M325 447L325 455L326 455L325 447z"/>
<path style="fill:#e6e1cd; stroke:none;" d="M403 447L400 449C402.143 449.265 403.419 449.384 403 447z"/>
<path style="fill:#d1b738; stroke:none;" d="M66 448L67 449L66 448M389 453L389 454C392.357 453.646 393.916 453.346 395 450L389 453z"/>
<path style="fill:#e6e1cd; stroke:none;" d="M395 450L394 454L398 453L398 451L395 450M400 450L401 451L400 450M69 453C70.1194 455.607 71.3414 456.068 72 453L69 453z"/>
<path style="fill:#d1b738; stroke:none;" d="M70 453L71 454L70 453z"/>
<path style="fill:#e6e1cd; stroke:none;" d="M390 453L390 456L384 456L383 459L392 457L390 453z"/>
<path style="fill:#d1b738; stroke:none;" d="M386 456L386 457L390 456L386 456z"/>
<path style="fill:#956c0c; stroke:none;" d="M72 456L73 457L72 456z"/>
<path style="fill:#d1b738; stroke:none;" d="M73 456L74 457L73 456z"/>
<path style="fill:#956c0c; stroke:none;" d="M74 456L75 457L74 456z"/>
<path style="fill:#d1b738; stroke:none;" d="M75 456L80 460L80 459L77 456L75 456z"/>
<path style="fill:#956c0c; stroke:none;" d="M77 456L78 457L77 456z"/>
<path style="fill:#d1b738; stroke:none;" d="M381 456L384 460L384 456L381 456z"/>
<path style="fill:#e6e1cd; stroke:none;" d="M73 457L75 459L75 457L73 457M75 459L76 460L75 459z"/>
<path style="fill:#956c0c; stroke:none;" d="M76 459L77 460L76 459z"/>
<path style="fill:#e6e1cd; stroke:none;" d="M77 459L78 460L77 459z"/>
<path style="fill:#d1b738; stroke:none;" d="M375 459L374 462L377 463L378 459L375 459z"/>
<path style="fill:#e6e1cd; stroke:none;" d="M378 459L377 460L378 463L381 462L381 460L378 459z"/>
<path style="fill:#d1b738; stroke:none;" d="M379.667 459.333L380.333 459.667L379.667 459.333z"/>
<path style="fill:#e6e1cd; stroke:none;" d="M78 460L83 465L78 460z"/>
<path style="fill:#956c0c; stroke:none;" d="M80 460L81 461L80 460z"/>
<path style="fill:#d1b738; stroke:none;" d="M80 461L81 462L80 461z"/>
<path style="fill:#956c0c; stroke:none;" d="M81 462L82 463L81 462M83 462L84 466L86 462L83 462z"/>
<path style="fill:#d1b738; stroke:none;" d="M369 466L373 462L369 466z"/>
<path style="fill:#e6e1cd; stroke:none;" d="M373 462L371 466L375 462L373 462z"/>
<path style="fill:#956c0c; stroke:none;" d="M377 462L378 463L377 462z"/>
<path style="fill:#d1b738; stroke:none;" d="M83 463L84 464L83 463M85 465L92 471L89 465L85 465M365 465L365 469L367 469L367 465L365 465z"/>
<path style="fill:#e6e1cd; stroke:none;" d="M367 465L367 469L369 465L367 465z"/>
<path style="fill:#956c0c; stroke:none;" d="M370 465L371 466L370 465M186 466L184 468L184 469L186 473L187 473L186 466z"/>
<path style="fill:#d1b738; stroke:none;" d="M369 467L370 468L369 467z"/>
<path style="fill:#e6e1cd; stroke:none;" d="M87.6667 468.333L88.3333 468.667L87.6667 468.333z"/>
<path style="fill:#956c0c; stroke:none;" d="M92 468L92 471L93 471L92 468z"/>
<path style="fill:#d1b738; stroke:none;" d="M358 468L357 472L361 472L361 468L358 468z"/>
<path style="fill:#e6e1cd; stroke:none;" d="M361 468L361 472L364 468L361 468M90 469L91 470L90 469M90 471L91 472L90 471z"/>
<path style="fill:#956c0c; stroke:none;" d="M91 471L92 472L91 471M93.6667 471.333L94.3333 471.667L93.6667 471.333z"/>
<path style="fill:#d1b738; stroke:none;" d="M351 475L356 474L356 471L351 475z"/>
<path style="fill:#e6e1cd; stroke:none;" d="M355 472L359 473L355 472z"/>
<path style="fill:#956c0c; stroke:none;" d="M325 474L326 475L325 474z"/>
<path style="fill:#d1b738; stroke:none;" d="M344 474L344 478L347 478L347 474L344 474z"/>
<path style="fill:#e6e1cd; stroke:none;" d="M347 474L347 478L353 474L347 474z"/>
<path style="fill:#956c0c; stroke:none;" d="M354 474L355 475L354 474z"/>
<path style="fill:#e6e1cd; stroke:none;" d="M355 474L356 475L355 474M324 475L324 483L325 483L324 475z"/>
<path style="fill:#d1b738; stroke:none;" d="M337 477L337 480L339 480L339 477L337 477z"/>
<path style="fill:#e6e1cd; stroke:none;" d="M339 477L338 481L342 478L339 477z"/>
<path style="fill:#d1b738; stroke:none;" d="M341 477L342 478L341 477z"/>
<path style="fill:#956c0c; stroke:none;" d="M341 479L342 480L341 479z"/>
<path style="fill:#d1b738; stroke:none;" d="M330 480L328 483L328 484L333 480L330 480z"/>
<path style="fill:#e6e1cd; stroke:none;" d="M333 480L336 483L335 480L333 480z"/>
<path style="fill:#d1b738; stroke:none;" d="M335.667 480.333L336.333 480.667L335.667 480.333z"/>
<path style="fill:#956c0c; stroke:none;" d="M331 483L332 484L331 483z"/>
<path style="fill:#e6e1cd; stroke:none;" d="M332 483L333 484L332 483z"/>
<path style="fill:#956c0c; stroke:none;" d="M186.333 484.667L186.667 485.333L186.333 484.667z"/>
<path style="fill:#d1b738; stroke:none;" d="M321 484L322 485L321 484z"/>
<path style="fill:#956c0c; stroke:none;" d="M296 486L296 487L299 488L299 485L296 486z"/>
<path style="fill:#d1b738; stroke:none;" d="M313 486L312 490L316 486L313 486z"/>
<path style="fill:#e6e1cd; stroke:none;" d="M316 486L315 490L319 486L316 486z"/>
<path style="fill:#956c0c; stroke:none;" d="M269 488L269 491L270 491L269 488z"/>
<path style="fill:#d1b738; stroke:none;" d="M305 488L306 489L305 488z"/>
<path style="fill:#e6e1cd; stroke:none;" d="M283 489L283 493L284 493L283 489z"/>
<path style="fill:#956c0c; stroke:none;" d="M314 489L315 490L314 489z"/>
<path style="fill:#d1b738; stroke:none;" d="M305 490L306 491L305 490M289 491L289 495L295 492L289 491z"/>
<path style="fill:#060503; stroke:none;" d="M166 492L164 496L169 496L166 492z"/>
<path style="fill:#e6e1cd; stroke:none;" d="M292 495L292 496L300 494C296.879 491.749 295.01 492.977 292 495z"/>
<path style="fill:#956c0c; stroke:none;" d="M269 494L269 498L270 498L269 494M275 495L276 499L279 498L283 495L275 495z"/>
<path style="fill:#d1b738; stroke:none;" d="M278 496L278 497L283 498L283 495L278 496z"/>
<path style="fill:#956c0c; stroke:none;" d="M291 495L292 496L291 495z"/>
<path style="fill:#e6e1cd; stroke:none;" d="M282 496L283 497L282 496z"/>
<path style="fill:#956c0c; stroke:none;" d="M159 497L159 498L162 498L159 497z"/>
<path style="fill:#e6e1cd; stroke:none;" d="M159 498L159 501L163 501L163 498L159 498z"/>
<path style="fill:#d1b738; stroke:none;" d="M163 498L163 501L166 501L166 498L163 498z"/>
<path style="fill:#956c0c; stroke:none;" d="M166 498L166 501L173 501L173 498L166 498z"/>
<path style="fill:#d1b738; stroke:none;" d="M274.667 498.333L275.333 498.667L274.667 498.333z"/>
<path style="fill:#e6e1cd; stroke:none;" d="M277 498L277 499L280 499L277 498z"/>
<path style="fill:#956c0c; stroke:none;" d="M183 500L183 501L187 499L183 500z"/>
<path style="fill:#e6e1cd; stroke:none;" d="M165 501L165 502L171 502L165 501M179 501L179 504L187 504L187 501L179 501M250 501L251 502L250 501M251 502L251 503C255.002 504.181 258.398 504.607 261 501L251 502z"/>
<path style="fill:#d1b738; stroke:none;" d="M259 501L260 502L259 501z"/>
</svg>
